<?xml version="1.0" encoding="UTF-8" standalone="no"?>
<svg width="408px" height="76px" viewBox="0 0 408 76" version="1.1" xmlns="http://www.w3.org/2000/svg" xmlns:xlink="http://www.w3.org/1999/xlink" xmlns:sketch="http://www.bohemiancoding.com/sketch/ns">
    <!-- Generator: Sketch 3.1.1 (8761) - http://www.bohemiancoding.com/sketch -->
    <title>Imported Layers + Imported Layers</title>
    <desc>Created with Sketch.</desc>
    <defs></defs>
    <g id="Page-1" stroke="none" stroke-width="1" fill="none" fill-rule="evenodd" sketch:type="MSPage">
        <g id="Imported-Layers-+-Imported-Layers" sketch:type="MSLayerGroup" transform="translate(2.000000, 2.000000)" fill="#1A1918">
            <g id="Imported-Layers" sketch:type="MSShapeGroup">
                <path d="M24.6127083,23.803 C20.020625,22.6676667 15.437125,21.489 10.8622083,20.2626667 C12.6346667,13.52 14.407125,6.77733333 16.1752917,0.0303333333 C14.3685,-0.455 12.5574167,-0.944666667 10.750625,-1.44733333 C6.49758333,14.248 2.24454167,29.9433333 -2.0085,45.6343333 C-0.07725,46.1673333 1.854,46.696 3.78525,47.2116667 C5.7165,39.8623333 7.64775,32.513 9.57470833,25.1593333 C14.1839583,26.3943333 18.7975,27.5816667 23.419625,28.7256667 C21.6257083,36.1096667 19.8360833,43.498 18.0464583,50.882 C19.9862917,51.363 21.926125,51.8353333 23.8659583,52.299 C27.57825,36.465 31.2905417,20.631 34.9985417,4.80133333 C33.178875,4.36366667 31.3592083,3.92166667 29.5438333,3.471 C27.900125,10.2483333 26.2564167,17.0256667 24.6127083,23.803" id="Fill-1"></path>
                <path d="M66.061625,11.4963333 C59.3752083,26.7713333 52.4484583,41.9726667 45.2770833,57.0916667 C47.1568333,57.4816667 49.0322917,57.8673333 50.9120417,58.2443333 C52.9977917,53.6943333 55.0577917,49.1313333 57.100625,44.564 C60.8129167,45.292 64.5252083,45.994 68.2460833,46.6656667 C68.52075,51.6663333 68.816875,56.6713333 69.1344583,61.6763333 C71.07,62.0186667 73.0055417,62.3523333 74.945375,62.6773333 C73.760875,45.9853333 72.8252917,29.302 72.1300417,12.636 C70.104375,12.2676667 68.083,11.8863333 66.061625,11.4963333 L66.061625,11.4963333 Z M58.7657917,40.3173333 C60.4095,36.4346667 62.0360417,32.5433333 63.6497083,28.652 C64.9114583,25.5753333 66.40925,21.5886667 67.6495417,18.0656667 C67.74825,18.083 67.8426667,18.1003333 67.941375,18.1176667 C67.8598333,21.7836667 67.7825833,25.9003333 67.8984583,29.4536667 C68.0143333,33.67 68.1430833,37.8906667 68.289,42.1113333 C65.1131667,41.535 61.9373333,40.937 58.7657917,40.3173333 L58.7657917,40.3173333 Z" id="Fill-2"></path>
                <path d="M111.360167,18.5033333 C108.197208,18.1003333 105.489167,18.1003333 103.184542,18.369 C101.025833,34.2463333 98.8714167,50.128 96.717,66.0096667 C98.686875,66.2826667 100.65675,66.547 102.626625,66.8026667 C103.472083,60.1943333 104.317542,53.586 105.158708,46.982 C105.969833,47.1553333 106.725167,47.255 107.695083,47.3763333 C112.184167,47.9483333 117.042333,46.6873333 120.183833,43.394 C122.381167,41.158 123.810292,38.246 124.273792,33.7826667 C124.70725,29.6053333 123.83175,25.948 121.6945,23.3783333 C119.437083,20.579 115.8235,19.0666667 111.360167,18.5033333 L111.360167,18.5033333 Z M118.583042,33.5226667 C117.827708,40.3563333 113.626167,43.537 107.961167,42.8133333 C106.995542,42.692 106.407583,42.5403333 105.759542,42.3106667 C106.57925,35.893 107.398958,29.4796667 108.218667,23.062 C108.969708,22.9406667 110.076958,22.9363333 111.377333,23.101 C117.523,23.868 119.132375,28.548 118.583042,33.5226667 L118.583042,33.5226667 Z" id="Fill-3"></path>
                <path d="M154.585833,22.6546667 C151.401417,22.4466667 148.70625,22.6113333 146.418792,23.0143333 C145.212833,39 144.006875,54.9813333 142.800917,70.9626667 C144.779375,71.1143333 146.757833,71.2616667 148.736292,71.396 C149.186917,64.7486667 149.637542,58.1013333 150.088167,51.4583333 C150.912167,51.584 151.658917,51.636 152.637417,51.6966667 C157.147958,51.9956667 161.920292,50.4443333 164.855792,46.9603333 C166.920083,44.5986667 168.160375,41.6043333 168.357792,37.1193333 C168.542333,32.9246667 167.45225,29.328 165.169083,26.8926667 C162.752875,24.232 159.05775,22.945 154.585833,22.6546667 L154.585833,22.6546667 Z M152.633125,47.1293333 C151.658917,47.0643333 151.066667,46.9473333 150.40575,46.7566667 C150.8435,40.3043333 151.28125,33.852 151.719,27.3953333 C152.46575,27.2263333 153.560125,27.157 154.869083,27.2436667 C161.036208,27.6336667 162.92025,32.2096667 162.667042,37.206 C162.323708,44.0743333 158.319583,47.502 152.633125,47.1293333 L152.633125,47.1293333 Z" id="Fill-4"></path>
                <path d="M207.484917,24.3706667 C206.141625,28.3876667 204.781167,32.4046667 203.394958,36.4173333 C202.081708,40.183 200.819958,43.8793333 199.759917,47.645 L199.614,47.645 C198.498167,43.875 197.184917,40.027 195.9575,36.6166667 C194.5155,32.526 193.094958,28.431 191.704458,24.3316667 C189.747458,24.3056667 187.79475,24.271 185.83775,24.2276667 C189.211,33.696 192.721583,43.1383333 196.373792,52.5503333 C196.326583,59.4316667 196.283667,66.313 196.236458,73.19 C198.219208,73.203 200.201958,73.2116667 202.184708,73.2073333 C202.176125,66.2566667 202.167542,59.3016667 202.158958,52.351 C206.034333,43.0256667 209.763792,33.6743333 213.347333,24.297 C211.390333,24.3273333 209.437625,24.3533333 207.484917,24.3706667" id="Fill-5"></path>
                <path d="M255.77475,26.4593333 C252.435833,23.8073333 248.079792,22.672 241.938417,23.023 C238.183208,23.2396667 234.732708,23.764 232.363708,24.4486667 C233.041792,40.4126667 233.724167,56.381 234.40225,72.345 C236.419333,72.475 239.599458,72.6136667 242.762417,72.4403333 C250.019625,72.046 255.100958,70.1523333 258.306833,66.7203333 C262.559875,62.621 264.619875,55.3843333 263.795875,45.5736667 C263.001917,36.1183333 260.259542,29.8913333 255.77475,26.4593333 L255.77475,26.4593333 Z M245.865292,64.506 C245.328833,64.5363333 244.564917,64.5796667 244.101417,64.4626667 C243.479125,53.2523333 242.856833,42.0463333 242.23025,30.8403333 C242.79675,30.5933333 243.461958,30.5543333 244.118583,30.5153333 C249.869417,30.1686667 252.925083,36.0316667 253.633208,46.0026667 C254.59025,59.436 250.693417,64.22 245.865292,64.506 L245.865292,64.506 Z" id="Fill-6"></path>
                <path d="M288.026625,19.1186667 C286.460167,35.698 284.653375,52.2816667 282.610542,68.8653333 C285.867917,68.5143333 289.116708,68.146 292.369792,67.756 C292.70025,63.9686667 293.022125,60.1856667 293.335417,56.4026667 C296.391083,56.0256667 299.442458,55.6313333 302.493833,55.2153333 C303.716958,58.8033333 304.948667,62.3826667 306.19325,65.9663333 C309.43775,65.5156667 312.677958,65.0433333 315.918167,64.5493333 C310.180208,48.971 304.64825,33.332 299.322292,17.6453333 C295.5585,18.1696667 291.794708,18.6593333 288.026625,19.1186667 L288.026625,19.1186667 Z M293.42125,48.9493333 C293.635833,45.5173333 293.846125,42.0853333 294.043542,38.6533333 C294.215208,35.7846667 294.309625,30.6626667 294.412625,27.365 C294.485583,27.352 294.558542,27.3433333 294.6315,27.3346667 C295.476958,30.511 296.755875,35.2386667 297.657125,38.1116667 C298.639917,41.4136667 299.627,44.7156667 300.618375,48.0176667 C298.219333,48.3383333 295.824583,48.6503333 293.42125,48.9493333 L293.42125,48.9493333 Z" id="Fill-7"></path>
                <path d="M347.951167,9.19966667 C339.166125,11.0413333 330.355333,12.714 321.523083,14.222 C322.00375,17.0993333 322.484417,19.981 322.965083,22.8626667 C325.8405,22.373 328.711625,21.866 331.578458,21.3416667 C333.938875,34.476 336.295,47.6103333 338.651125,60.7446667 C341.98575,60.138 345.311792,59.5053333 348.637833,58.851 C346.110042,45.747 343.58225,32.643 341.054458,19.539 C343.94275,18.9713333 346.831042,18.3863333 349.715042,17.784 C349.127083,14.924 348.539125,12.0596667 347.951167,9.19966667" id="Fill-8"></path>
                <path d="M371.49525,3.85666667 C371.847167,20.5096667 371.95875,37.1973333 371.838583,53.911 C375.044458,53.1743333 378.250333,52.4203333 381.447625,51.6403333 C381.344625,47.8443333 381.22875,44.0483333 381.1,40.2523333 C384.108458,39.5113333 387.108333,38.753 390.108208,37.9773333 C391.743333,41.392 393.387042,44.8023333 395.043625,48.2083333 C398.232333,47.372 401.41675,46.514 404.596875,45.6343333 C397.065,30.849 389.730542,15.9813333 382.602083,1.04 C378.906958,2.00633333 375.20325,2.94666667 371.49525,3.85666667 L371.49525,3.85666667 Z M387.404458,31.0483333 C385.048333,31.6593333 382.687917,32.253 380.3275,32.838 C380.14725,29.4016667 379.954125,25.9696667 379.756708,22.5376667 C379.597917,19.669 379.104375,14.5686667 378.821125,11.2796667 C378.894083,11.2623333 378.967042,11.2406667 379.04,11.2233333 C380.25025,14.2783333 382.074208,18.8196667 383.305917,21.567 C384.666375,24.7303333 386.031125,27.8936667 387.404458,31.0483333 L387.404458,31.0483333 Z" id="Fill-9"></path>
                <path d="M397.073583,-0.489666667 L398.313875,-0.489666667 L398.313875,3.24133333 L399.112125,3.24133333 L399.112125,-0.489666667 L400.365292,-0.489666667 L400.365292,-1.16133333 L397.073583,-1.16133333 L397.073583,-0.489666667" id="Fill-10"></path>
                <path d="M405.146208,-1.16133333 L404.111917,-1.16133333 L403.511083,0.602333333 C403.339417,1.118 403.1935,1.65966667 403.077625,2.13633333 L403.056167,2.13633333 C402.948875,1.64666667 402.811542,1.12666667 402.657042,0.606666667 L402.08625,-1.16133333 L401.039083,-1.16133333 L400.74725,3.24133333 L401.494,3.24133333 L401.588417,1.469 C401.62275,0.871 401.6485,0.173333333 401.665667,-0.403 L401.678542,-0.403 C401.794417,0.147333333 401.953208,0.745333333 402.120583,1.30866667 L402.699958,3.185 L403.317958,3.185 L403.948833,1.28266667 C404.141958,0.728 404.322208,0.13 404.468125,-0.403 L404.485292,-0.403 C404.476708,0.190666667 404.511042,0.875333333 404.536792,1.443 L404.622625,3.24133333 L405.395125,3.24133333 L405.146208,-1.16133333" id="Fill-11"></path>
            </g>
        </g>
    </g>
</svg>