<svg viewBox="0 0 117 35" version="1.1" xmlns="http://www.w3.org/2000/svg" xmlns:xlink="http://www.w3.org/1999/xlink">
    <g id="Nomie-3-Home-Page" stroke="none" stroke-width="1" fill="none" fill-rule="evenodd">
        <g id="Tablet" transform="translate(-409.000000, -29.000000)" fill="#FFFFFF">
            <path d="M428.996062,42.5799706 C430.290841,44.1305306 430.938222,46.4713894 430.938222,49.6026174 L430.938222,60.0349737 C430.938222,61.0285364 430.629587,61.8113316 430.012308,62.3833829 C429.39503,62.9554341 428.559458,63.2414555 427.505568,63.2414555 C426.451677,63.2414555 425.623633,62.9554341 425.02141,62.3833829 C424.419187,61.8113316 424.11808,61.0285364 424.11808,60.0349737 L424.11808,49.9187494 C424.11808,48.4133513 423.839556,47.3144272 423.2825,46.6219441 C422.725444,45.929461 421.859761,45.5832247 420.685426,45.5832247 C419.270202,45.5832247 418.133523,46.0348373 417.275355,46.9380761 C416.417188,47.841315 415.98811,49.0456153 415.98811,50.5510134 L415.98811,60.0349737 C415.98811,61.0285364 415.687003,61.8113316 415.08478,62.3833829 C414.482557,62.9554341 413.654513,63.2414555 412.600623,63.2414555 C411.546732,63.2414555 410.711161,62.9554341 410.093882,62.3833829 C409.476603,61.8113316 409.167969,61.0285364 409.167969,60.0349737 L409.167969,43.460624 C409.167969,42.5272773 409.491659,41.7745895 410.139048,41.2025383 C410.786438,40.630487 411.62201,40.3444657 412.645789,40.3444657 C413.579235,40.3444657 414.33953,40.6229601 414.926697,41.1799574 C415.513865,41.7369547 415.807444,42.452008 415.807444,43.3251389 L415.807444,43.9574029 C416.590334,42.7530845 417.60657,41.8348054 418.856183,41.2025383 C420.105796,40.5702711 421.513471,40.2541422 423.079251,40.2541422 C425.729032,40.2541422 427.701283,41.0294106 428.996062,42.5799706 L428.996062,42.5799706 Z M437.974361,61.9091849 C436.197803,60.9607841 434.827766,59.6209999 433.864209,57.8897922 C432.900652,56.1585844 432.418881,54.1188007 432.418881,51.7703797 C432.418881,49.4219588 432.900652,47.382175 433.864209,45.6509673 C434.827766,43.9197595 436.197803,42.5875022 437.974361,41.6541554 C439.750919,40.7208086 441.813501,40.2541422 444.162171,40.2541422 C446.510841,40.2541422 448.573424,40.7208086 450.349982,41.6541554 C452.126539,42.5875022 453.496576,43.9197595 454.460133,45.6509673 C455.42369,47.382175 455.905461,49.4219588 455.905461,51.7703797 C455.905461,54.1188007 455.42369,56.1585844 454.460133,57.8897922 C453.496576,59.6209999 452.126539,60.9607841 450.349982,61.9091849 C448.573424,62.8575856 446.510841,63.3317789 444.162171,63.3317789 C441.813501,63.3317789 439.750919,62.8575856 437.974361,61.9091849 L437.974361,61.9091849 Z M449.130486,51.7703797 C449.130486,49.6327145 448.701409,48.0370165 447.843241,46.9832379 C446.985073,45.9294592 445.758062,45.4025778 444.162171,45.4025778 C440.849945,45.4025778 439.193856,47.5251572 439.193856,51.7703797 C439.193856,56.0156022 440.849945,58.1381816 444.162171,58.1381816 C447.474398,58.1381816 449.130486,56.0156022 449.130486,51.7703797 L449.130486,51.7703797 Z M490.13329,42.4444854 C491.428069,43.9047216 492.075449,46.2907417 492.075449,49.6026174 L492.075449,60.0349737 C492.075449,61.0887523 491.759287,61.8866013 491.126953,62.4285446 C490.494619,62.9704879 489.68163,63.2414555 488.687962,63.2414555 C487.724405,63.2414555 486.911416,62.9704879 486.248971,62.4285446 C485.586526,61.8866013 485.255308,61.0887523 485.255308,60.0349737 L485.255308,49.5122939 C485.255308,48.0671118 485.006895,47.0509834 484.510061,46.4638781 C484.013227,45.8767729 483.252932,45.5832247 482.229152,45.5832247 C480.964484,45.5832247 479.955776,46.0197836 479.202997,46.8929144 C478.450218,47.7660453 478.073835,48.9853994 478.073835,50.5510134 L478.073835,60.0349737 C478.073835,61.0887523 477.757672,61.8866013 477.125338,62.4285446 C476.493004,62.9704879 475.680015,63.2414555 474.686347,63.2414555 C473.72279,63.2414555 472.909801,62.9704879 472.247356,62.4285446 C471.584911,61.8866013 471.253693,61.0887523 471.253693,60.0349737 L471.253693,49.5122939 C471.253693,48.0671118 471.00528,47.0509834 470.508446,46.4638781 C470.011612,45.8767729 469.251317,45.5832247 468.227538,45.5832247 C466.962869,45.5832247 465.954161,46.0197836 465.201382,46.8929144 C464.448603,47.7660453 464.07222,48.9853994 464.07222,50.5510134 L464.07222,60.0349737 C464.07222,61.0887523 463.74853,61.8866013 463.10114,62.4285446 C462.45375,62.9704879 461.648289,63.2414555 460.684732,63.2414555 C459.721175,63.2414555 458.908187,62.9704879 458.245741,62.4285446 C457.583296,61.8866013 457.252078,61.0887523 457.252078,60.0349737 L457.252078,43.460624 C457.252078,42.4670613 457.590824,41.6993198 458.268324,41.1573766 C458.945825,40.6154333 459.766342,40.3444657 460.729899,40.3444657 C461.633233,40.3444657 462.386001,40.6079064 462.988224,41.1347957 C463.590447,41.661685 463.891554,42.3917921 463.891554,43.3251389 L463.891554,43.7767561 C464.614221,42.6326535 465.555181,41.7595358 466.71446,41.1573766 C467.873739,40.5552173 469.191082,40.2541422 470.666529,40.2541422 C472.26242,40.2541422 473.609873,40.577798 474.70893,41.2251191 C475.807987,41.8724403 476.658615,42.9186762 477.260838,44.3638584 C477.953394,43.099324 478.939519,42.0982493 480.219243,41.3606043 C481.498967,40.6229592 482.951808,40.2541422 484.57781,40.2541422 C486.986702,40.2541422 488.83851,40.9842493 490.13329,42.4444854 L490.13329,42.4444854 Z M494.847725,62.4285446 C494.200336,61.8866013 493.876646,61.0887523 493.876646,60.0349737 L493.876646,43.5509475 C493.876646,42.4971688 494.207863,41.6993198 494.870309,41.1573766 C495.532754,40.6154333 496.345743,40.3444657 497.3093,40.3444657 C498.272856,40.3444657 499.078318,40.6154333 499.725707,41.1573766 C500.373097,41.6993198 500.696787,42.4971688 500.696787,43.5509475 L500.696787,60.0349737 C500.696787,61.0887523 500.373097,61.8866013 499.725707,62.4285446 C499.078318,62.9704879 498.272856,63.2414555 497.3093,63.2414555 C496.315632,63.2414555 495.495115,62.9704879 494.847725,62.4285446 L494.847725,62.4285446 Z M494.46381,36.413015 C493.771254,35.7322016 493.424981,34.8106265 493.424981,33.6482621 C493.424981,32.4858976 493.771254,31.572625 494.46381,30.9084168 C495.156367,30.2442085 496.104854,29.9121094 497.3093,29.9121094 C498.483634,29.9121094 499.424594,30.252511 500.132206,30.9333244 C500.839818,31.6141379 501.193618,32.519108 501.193618,33.6482621 C501.193618,34.8106265 500.847345,35.7322016 500.154789,36.413015 C499.462233,37.0938285 498.513746,37.4342301 497.3093,37.4342301 C496.104854,37.4342301 495.156367,37.0938285 494.46381,36.413015 L494.46381,36.413015 Z M522.390912,57.0994622 C522.767302,57.5811895 522.955493,58.1983935 522.955493,58.9510925 C522.955493,59.4629278 522.80494,59.9371211 522.503829,60.3736865 C522.202717,60.810252 521.781167,61.179069 521.239167,61.4801486 C520.215387,62.0220919 519.026015,62.4661776 517.671013,62.8124192 C516.316011,63.1586607 515.066417,63.3317789 513.922194,63.3317789 C511.513302,63.3317789 509.41308,62.8651125 507.621467,61.9317657 C505.829853,60.9984189 504.452289,59.6661616 503.488732,57.9349539 C502.525175,56.2037461 502.043404,54.1639624 502.043404,51.8155414 C502.043404,49.5574444 502.51012,47.555295 503.443566,45.8090333 C504.377011,44.0627715 505.671771,42.7004067 507.327885,41.721898 C508.983998,40.7433893 510.865917,40.2541422 512.973697,40.2541422 C514.991144,40.2541422 516.760148,40.698228 518.280761,41.5864129 C519.801374,42.4745977 520.983219,43.7391131 521.826331,45.379997 C522.669443,47.0208808 523.090993,48.9402345 523.090993,51.1381157 C523.090993,51.8004908 522.932912,52.3047916 522.616745,52.6510332 C522.300578,52.9972747 521.856445,53.1703929 521.284333,53.1703929 L508.637713,53.1703929 C508.848491,54.9467626 509.390484,56.2338586 510.263707,57.0317196 C511.13693,57.8295805 512.386524,58.228505 514.012527,58.228505 C514.88575,58.228505 515.668628,58.1231288 516.361185,57.912373 C517.053741,57.7016173 517.821564,57.415596 518.664676,57.0543004 C519.086232,56.8736527 519.492727,56.7155882 519.884172,56.5801024 C520.275616,56.4446166 520.62189,56.3768747 520.923001,56.3768747 C521.525224,56.3768747 522.014523,56.6177348 522.390912,57.0994622 L522.390912,57.0994622 Z M510.037875,46.1929078 C510.820765,45.3649389 511.859584,44.9509607 513.154363,44.9509607 C514.449143,44.9509607 515.450323,45.357412 516.157935,46.170327 C516.865547,46.9832419 517.264514,48.1875423 517.354848,49.7832642 L508.637713,49.7832642 C508.788269,48.2176503 509.254985,47.0208768 510.037875,46.1929078 Z M521.745906,40.1704704 C521.745906,39.9028072 521.79616,39.6518768 521.89667,39.4176716 C521.99718,39.1834663 522.134542,38.9793762 522.308759,38.8053952 C522.482976,38.6314142 522.687343,38.4942389 522.921867,38.3938652 C523.15639,38.2934915 523.407661,38.2433054 523.675687,38.2433054 C523.943714,38.2433054 524.194985,38.2934915 524.429508,38.3938652 C524.664031,38.4942389 524.868399,38.6314142 525.042616,38.8053952 C525.216833,38.9793762 525.354195,39.1834663 525.454705,39.4176716 C525.555215,39.6518768 525.605469,39.9028072 525.605469,40.1704704 C525.605469,40.4314419 525.555215,40.6790266 525.454705,40.9132319 C525.354195,41.1474371 525.216833,41.3532001 525.042616,41.5305269 C524.868399,41.7078537 524.664031,41.8467019 524.429508,41.9470756 C524.194985,42.0474493 523.943714,42.0976353 523.675687,42.0976353 C523.407661,42.0976353 523.15639,42.0474493 522.921867,41.9470756 C522.687343,41.8467019 522.482976,41.7078537 522.308759,41.5305269 C522.134542,41.3532001 521.99718,41.1474371 521.89667,40.9132319 C521.79616,40.6790266 521.745906,40.4314419 521.745906,40.1704704 Z M524.700818,41.0669858 C524.700818,41.0253296 524.68594,40.9826823 524.656182,40.9390424 L524.430026,40.5998437 C524.386381,40.534384 524.34125,40.4842982 524.29463,40.4495847 C524.248009,40.4148712 524.194942,40.3915639 524.135427,40.3796621 C524.298102,40.3459405 524.424074,40.2755227 524.513347,40.1684068 C524.602619,40.0612909 524.647255,39.927398 524.647255,39.7667241 C524.647255,39.5624104 524.584269,39.4062021 524.458295,39.2980944 C524.332322,39.1899866 524.14634,39.1359336 523.900344,39.1359336 L523.153432,39.1359336 C523.083998,39.1359336 523.030435,39.1547778 522.992742,39.1924667 C522.955049,39.2301556 522.936203,39.2837128 522.936203,39.3531398 L522.936203,41.019379 C522.936203,41.0907896 522.957033,41.1473221 522.998694,41.1889783 C523.040354,41.2306345 523.096893,41.2514623 523.168311,41.2514623 C523.237745,41.2514623 523.292796,41.2306345 523.333465,41.1889783 C523.374133,41.1473221 523.394467,41.0907896 523.394467,41.019379 L523.394467,40.4183427 L523.635503,40.4183427 C523.693034,40.4183427 523.740645,40.4297484 523.778338,40.4525601 C523.816031,40.4753718 523.85174,40.5125643 523.885465,40.5641386 L524.278263,41.1473223 C524.302069,41.1850113 524.331826,41.2127816 524.367535,41.2306343 C524.403244,41.248487 524.439945,41.2574131 524.477638,41.2574131 C524.537153,41.2574131 524.589228,41.2395608 524.633864,41.2038555 C524.678501,41.1681502 524.700818,41.1225274 524.700818,41.0669858 Z M524.120549,39.9973197 C524.061033,40.043935 523.964819,40.0672423 523.831902,40.0672423 L523.388516,40.0672423 L523.388516,39.4900094 L523.831902,39.4900094 C523.964819,39.4900094 524.061033,39.5128208 524.120549,39.5584442 C524.180064,39.6040677 524.209821,39.6774608 524.209821,39.7786258 C524.209821,39.8778072 524.180064,39.9507045 524.120549,39.9973197 Z" id="Combined-Shape"></path>
        </g>
    </g>
</svg>
